<svg width="71" height="72" viewBox="0 0 71 72" fill="none" xmlns="http://www.w3.org/2000/svg">
<g clip-path="url(#clip0_1_2979)">
<path d="M35.1602 36C54.569 36 70.3202 27.9148 70.3202 18C70.3202 8.08525 54.628 0 35.1602 0C15.7514 0 0.000152588 8.08525 0.000152588 18C0.000152588 27.9148 15.6924 36 35.1602 36ZM41.7674 27.1475C41.1775 28.5049 40.1746 31.3377 37.8739 32.577C37.1659 32.9311 36.34 33.1082 35.5141 33.1082C35.3371 33.1082 35.2192 33.1082 35.1602 33.1082C29.2018 33.1672 23.3025 32.341 17.5802 30.6885L17.4032 30.6295C16.9312 30.4525 16.6953 30.2754 16.6953 29.9803C16.6953 29.8623 16.7543 29.7443 16.7543 29.6852C16.8132 29.5672 16.8722 29.5082 16.9312 29.4492L17.2262 29.1541C18.3471 28.1508 21.8867 25.6131 28.5529 23.1344C31.2666 22.0131 34.0393 21.1869 36.871 20.4787C38.6998 20.0656 45.307 19.0623 41.7674 27.1475ZM59.5834 9.02951C59.6424 8.91148 59.7014 8.79344 59.8194 8.73443C59.9374 8.67541 60.0553 8.61639 60.1733 8.61639C60.4093 8.61639 60.7043 8.67541 60.8812 8.85246C65.0108 11.3902 67.4885 14.577 67.4885 18C67.4885 24.1967 59.5244 29.5672 48.0797 31.8689C47.3718 32.0459 46.8408 31.9869 46.7228 31.8689C46.5459 31.7508 46.5459 31.5738 46.7228 31.3377C46.7818 31.1607 46.8998 31.0426 47.0178 30.9246C53.2121 23.6066 57.9906 12.8066 59.2884 9.67869C59.4064 9.38361 59.4654 9.14754 59.5834 9.02951ZM28.6709 8.79344C29.2608 7.43607 30.2637 4.54426 32.5645 3.36393C33.2724 3.00984 34.0983 2.83279 34.9242 2.83279C35.1012 2.83279 35.2192 2.83279 35.2781 2.83279C41.2365 2.77377 47.1358 3.6 52.8582 5.25246L53.0351 5.31148C53.5071 5.48852 53.743 5.66557 53.743 5.96066C53.743 6.07869 53.6841 6.19672 53.6841 6.25574C53.6251 6.37377 53.5661 6.43279 53.5071 6.4918L53.0941 6.8459C51.9733 7.84918 48.4926 10.3869 41.8264 12.9246C39.1127 14.0459 36.34 14.9311 33.5084 15.5803C31.7975 15.9344 25.1903 16.9377 28.6709 8.79344ZM22.2996 4.13115C23.0665 4.01311 23.5385 4.01311 23.7155 4.13115C23.7745 4.19016 23.7745 4.3082 23.7745 4.42623C23.7745 4.54426 23.7155 4.60328 23.7155 4.72131C23.5975 4.89836 23.5385 5.01639 23.4205 5.13443C17.1672 12.4525 12.3887 23.2525 11.0909 26.3803C10.9729 26.6164 10.9139 26.7934 10.7959 26.9705C10.7369 27.0885 10.6779 27.2066 10.56 27.2656C10.442 27.3246 10.324 27.3836 10.206 27.3836C9.97002 27.3836 9.67505 27.3246 9.49807 27.1475C5.36854 24.6098 2.89082 21.423 2.89082 18C2.89082 11.8033 10.8549 6.4918 22.2996 4.13115Z" fill="#0F0F0F"/>
</g>
<path d="M14.1373 66V54.8H15.7053V66H14.1373ZM6.53728 66V54.8H8.10528V66H6.53728ZM7.84928 60.96V59.52H14.6333V60.96H7.84928ZM19.1609 69.392C18.9262 69.392 18.6649 69.3493 18.3769 69.264C18.0996 69.1787 17.8116 69.0667 17.5129 68.928L18.0729 67.68C18.3076 67.7867 18.5102 67.8667 18.6809 67.92C18.8622 67.9733 19.0062 68 19.1129 68C19.3796 68 19.6036 67.9253 19.7849 67.776C19.9769 67.6267 20.1316 67.4187 20.2489 67.152L21.1769 64.96L24.0249 58H25.6569L21.8649 66.992C21.6622 67.4827 21.4489 67.9093 21.2249 68.272C21.0009 68.6347 20.7236 68.912 20.3929 69.104C20.0729 69.296 19.6622 69.392 19.1609 69.392ZM20.7609 66L17.2569 58H18.8729L21.7689 64.944L22.2329 66H20.7609ZM32.2655 66L32.1695 64.528V58H33.6735V66H32.2655ZM26.6335 62.576V58H28.1535V62.096L26.6335 62.576ZM28.1535 62.096C28.1535 62.8107 28.2335 63.36 28.3935 63.744C28.5642 64.128 28.7989 64.3947 29.0975 64.544C29.3962 64.6933 29.7322 64.7733 30.1055 64.784C30.7562 64.784 31.2629 64.5547 31.6255 64.096C31.9882 63.6373 32.1695 62.992 32.1695 62.16H32.8255C32.8255 63.0027 32.7029 63.728 32.4575 64.336C32.2122 64.9333 31.8549 65.392 31.3855 65.712C30.9269 66.032 30.3722 66.192 29.7215 66.192C28.7615 66.192 28.0042 65.8933 27.4495 65.296C26.9055 64.6987 26.6335 63.792 26.6335 62.576L28.1535 62.096ZM35.7943 66V58H37.2183L37.3143 59.472V66H35.7943ZM41.3303 66V61.904L42.8503 61.424V66H41.3303ZM41.3303 61.904C41.3303 61.1787 41.2449 60.6293 41.0743 60.256C40.9143 59.872 40.6849 59.6053 40.3863 59.456C40.0983 59.3067 39.7623 59.2267 39.3783 59.216C38.7276 59.216 38.2209 59.4453 37.8583 59.904C37.4956 60.3627 37.3143 61.008 37.3143 61.84H36.6583C36.6583 60.9973 36.7809 60.2773 37.0263 59.68C37.2716 59.072 37.6236 58.608 38.0823 58.288C38.5516 57.968 39.1116 57.808 39.7623 57.808C40.7223 57.808 41.4743 58.1067 42.0183 58.704C42.5729 59.2907 42.8503 60.1973 42.8503 61.424L41.3303 61.904ZM50.619 66L50.555 64.512V54.8H52.059V66H50.619ZM47.931 66.192C47.2057 66.192 46.571 66.016 46.027 65.664C45.4937 65.312 45.0724 64.8213 44.763 64.192C44.4644 63.5627 44.315 62.832 44.315 62C44.315 61.1573 44.4644 60.4267 44.763 59.808C45.0724 59.1787 45.4937 58.688 46.027 58.336C46.571 57.984 47.2057 57.808 47.931 57.808C48.603 57.808 49.1844 57.984 49.675 58.336C50.1764 58.688 50.5604 59.1787 50.827 59.808C51.0937 60.4267 51.227 61.1573 51.227 62C51.227 62.832 51.0937 63.5627 50.827 64.192C50.5604 64.8213 50.1764 65.312 49.675 65.664C49.1844 66.016 48.603 66.192 47.931 66.192ZM48.283 64.816C48.731 64.816 49.1257 64.6987 49.467 64.464C49.8084 64.2187 50.075 63.888 50.267 63.472C50.459 63.0453 50.555 62.5547 50.555 62C50.555 61.4453 50.459 60.96 50.267 60.544C50.075 60.1173 49.8084 59.7867 49.467 59.552C49.1257 59.3067 48.7257 59.184 48.267 59.184C47.7977 59.184 47.3817 59.3067 47.019 59.552C46.6564 59.7867 46.3737 60.1173 46.171 60.544C45.9684 60.96 45.867 61.4453 45.867 62C45.867 62.5547 45.9684 63.0453 46.171 63.472C46.3844 63.888 46.6724 64.2187 47.035 64.464C47.3977 64.6987 47.8137 64.816 48.283 64.816ZM59.0653 66L58.9853 64.608V61.824C58.9853 61.2373 58.9159 60.752 58.7773 60.368C58.6493 59.9733 58.4466 59.6747 58.1693 59.472C57.9026 59.2693 57.5453 59.168 57.0973 59.168C56.6813 59.168 56.3133 59.2533 55.9933 59.424C55.6839 59.5947 55.4279 59.8613 55.2253 60.224L53.8493 59.712C54.0413 59.3493 54.2866 59.024 54.5853 58.736C54.8839 58.448 55.2413 58.224 55.6573 58.064C56.0839 57.8933 56.5746 57.808 57.1293 57.808C57.8759 57.808 58.4999 57.952 59.0013 58.24C59.5133 58.528 59.8919 58.96 60.1373 59.536C60.3933 60.1013 60.5159 60.8053 60.5053 61.648L60.4893 66H59.0653ZM56.7293 66.192C55.7799 66.192 55.0386 65.9787 54.5053 65.552C53.9826 65.1147 53.7213 64.512 53.7213 63.744C53.7213 62.9227 53.9933 62.2987 54.5373 61.872C55.0919 61.4347 55.8599 61.216 56.8413 61.216H59.0653V62.416H57.2573C56.5213 62.416 56.0039 62.5333 55.7053 62.768C55.4066 62.992 55.2573 63.3067 55.2573 63.712C55.2573 64.0853 55.3959 64.3787 55.6733 64.592C55.9613 64.7947 56.3559 64.896 56.8573 64.896C57.2946 64.896 57.6679 64.7947 57.9773 64.592C58.2973 64.3893 58.5426 64.1227 58.7133 63.792C58.8946 63.4507 58.9853 63.072 58.9853 62.656H59.7053C59.7053 63.744 59.4546 64.608 58.9533 65.248C58.4519 65.8773 57.7106 66.192 56.7293 66.192ZM62.5153 66L62.5473 58H64.0513L64.0353 66H62.5153ZM63.2833 56.304C63.0379 56.304 62.8246 56.2133 62.6433 56.032C62.4619 55.84 62.3713 55.6213 62.3713 55.376C62.3713 55.12 62.4619 54.9067 62.6433 54.736C62.8246 54.5547 63.0379 54.464 63.2833 54.464C63.5393 54.464 63.7526 54.5547 63.9233 54.736C64.1046 54.9067 64.1953 55.12 64.1953 55.376C64.1953 55.6213 64.1046 55.84 63.9233 56.032C63.7526 56.2133 63.5393 56.304 63.2833 56.304Z" fill="black"/>
<defs>
<clipPath id="clip0_1_2979">
<rect width="70.32" height="36" fill="white"/>
</clipPath>
</defs>
</svg>
