<svg width="63" height="72" viewBox="0 0 63 72" fill="none" xmlns="http://www.w3.org/2000/svg">
<g clip-path="url(#clip0_1_2987)">
<path fill-rule="evenodd" clip-rule="evenodd" d="M41.4554 3.15625C40.417 7.52192 40.082 9.57043 39.3116 12.7271C38.5411 15.8167 37.9382 18.6376 36.9333 19.9809C35.9284 21.3242 34.555 21.6936 33.5166 21.7607C33.0141 21.8615 32.6791 21.8615 31.6407 21.8615C30.6023 21.8615 30.2003 21.8615 29.7649 21.7607C28.8269 21.66 27.4536 21.3242 26.3481 19.9809C25.3097 18.604 24.7403 15.7831 23.9698 12.7271C23.1994 9.57043 22.7639 7.52192 21.826 3.15625C21.826 3.15625 20.8881 3.15625 20.3856 3.257C19.7827 3.257 19.3472 3.257 18.8448 3.35774C18.8448 3.35774 19.4477 12.4249 19.6822 16.1861C19.9502 20.216 20.4526 26.9324 20.8881 32.0704C20.8881 32.0704 21.7255 32.2383 23.0989 32.2383C24.4723 32.4062 25.1422 32.507 25.1422 32.507C25.7452 30.2906 26.5156 27.1339 27.2861 25.757C27.956 24.6488 28.9944 24.548 29.5974 24.4809C30.5353 24.3801 31.3057 24.313 31.6407 24.313C31.9757 24.313 32.7461 24.313 33.684 24.4809C34.287 24.5816 35.2919 24.6488 35.9953 25.757C36.8328 27.1339 37.5362 30.1898 38.1392 32.507C38.1392 32.507 38.7421 32.507 40.1825 32.4062C41.5559 32.3055 42.3933 32.2383 42.3933 32.2383C42.8288 27.1003 43.3312 20.3503 43.5992 16.354C43.8672 12.5257 44.4367 3.52565 44.4367 3.52565C43.9342 3.42491 43.4987 3.42491 42.8958 3.35774C42.4938 3.15625 41.4554 3.15625 41.4554 3.15625Z" fill="black"/>
<path fill-rule="evenodd" clip-rule="evenodd" d="M50.4328 18.5373C50.0979 23.2388 49.6624 26.1269 49.1599 28.1754C48.6575 29.9552 48.0545 31.1642 47.1166 32.0037C45.5757 33.4478 43.4654 33.7836 42.2595 33.9851C39.6132 34.4216 35.0911 34.5896 31.6074 34.5896C28.1237 34.5896 23.6016 34.4216 20.9553 33.9851C19.7494 33.8172 17.639 33.4813 16.0982 32.0037C15.1603 31.1642 14.5573 29.9552 14.0548 28.1754C13.4519 26.1269 13.0834 23.306 12.7485 18.5373C12.581 15.7164 12.581 11.0149 12.9159 8.52985C13.3514 4.8694 15.1268 2.98881 18.8784 2.28358C20.4863 1.94776 22.8981 1.6791 25.1089 1.61194C26.9178 1.54478 29.899 1.44403 31.5069 1.44403C33.1148 1.44403 36.096 1.54478 37.9049 1.61194C40.1157 1.71269 42.494 1.94776 44.3028 2.28358C48.0545 2.95522 49.8299 4.83582 50.2653 8.52985C50.4998 11.1157 50.6003 15.7164 50.4328 18.5373ZM52.4762 8.6306C51.8732 2.72015 48.1215 1.44403 44.8053 0.873134C43.0969 0.604478 40.2162 0.369403 38.2398 0.268657C36.5985 0.100746 32.6793 0 31.5069 0C30.301 0 26.3818 0.100746 24.774 0.16791C22.8981 0.268657 19.9169 0.503731 18.2085 0.839552C14.8923 1.44403 11.1406 2.6194 10.5376 8.59702C10.3701 10.209 10.3701 12.3582 10.3701 14.5746C10.4706 18.3358 10.7051 20.8881 10.8726 22.6007C10.9731 23.8097 11.4756 27.4701 12.0785 29.25C12.9159 31.8022 13.6864 32.5746 14.5573 33.347C16.1652 34.7239 18.9119 35.1269 19.5149 35.3284C22.5966 35.9328 28.7266 36 31.4399 36C34.1532 36 40.3167 35.8993 43.3649 35.3284C43.9679 35.2276 46.6142 34.8246 48.3225 33.347C49.2604 32.5746 49.9304 31.8022 50.8013 29.25C51.4043 27.3694 51.9067 23.7761 52.0072 22.6007C52.1747 20.8209 52.5097 18.3358 52.5097 14.5746C52.6437 12.291 52.6437 10.2425 52.4762 8.6306Z" fill="black"/>
</g>
<path d="M4.08663 66V55.728H5.67063V66H4.08663ZM0.582625 56.24V54.8H9.17463V56.24H0.582625ZM15.6314 66.192C14.5434 66.192 13.578 65.9467 12.7354 65.456C11.8927 64.9653 11.2314 64.2827 10.7514 63.408C10.282 62.5333 10.0474 61.5307 10.0474 60.4C10.0474 59.2693 10.282 58.272 10.7514 57.408C11.2314 56.5333 11.8874 55.8507 12.7194 55.36C13.5514 54.8587 14.5114 54.608 15.5994 54.608C16.6874 54.608 17.6474 54.8587 18.4794 55.36C19.3114 55.8507 19.962 56.5333 20.4314 57.408C20.9007 58.272 21.1354 59.2693 21.1354 60.4C21.1354 61.5307 20.9007 62.5333 20.4314 63.408C19.962 64.2827 19.3114 64.9653 18.4794 65.456C17.658 65.9467 16.7087 66.192 15.6314 66.192ZM15.6314 64.752C16.3994 64.752 17.0767 64.5653 17.6634 64.192C18.25 63.8187 18.7087 63.3067 19.0394 62.656C19.37 62.0053 19.5354 61.2533 19.5354 60.4C19.5354 59.5573 19.3647 58.8107 19.0234 58.16C18.6927 57.4987 18.2287 56.9813 17.6314 56.608C17.0447 56.2347 16.3674 56.048 15.5994 56.048C14.8314 56.048 14.1487 56.2347 13.5514 56.608C12.954 56.9813 12.4847 57.4987 12.1434 58.16C11.8127 58.8107 11.6474 59.5573 11.6474 60.4C11.6474 61.2533 11.818 62.0053 12.1594 62.656C12.5007 63.3067 12.97 63.8187 13.5674 64.192C14.1754 64.5653 14.8634 64.752 15.6314 64.752ZM27.2898 61.344L25.8658 60.8L29.4978 54.8H31.3218L27.2898 61.344ZM25.7378 66V60.624H27.3218V66H25.7378ZM25.7698 61.344L21.7378 54.8H23.5458L27.1778 60.8L25.7698 61.344ZM37.7251 66.192C36.6371 66.192 35.6718 65.9467 34.8291 65.456C33.9865 64.9653 33.3251 64.2827 32.8451 63.408C32.3758 62.5333 32.1411 61.5307 32.1411 60.4C32.1411 59.2693 32.3758 58.272 32.8451 57.408C33.3251 56.5333 33.9811 55.8507 34.8131 55.36C35.6451 54.8587 36.6051 54.608 37.6931 54.608C38.7811 54.608 39.7411 54.8587 40.5731 55.36C41.4051 55.8507 42.0558 56.5333 42.5251 57.408C42.9945 58.272 43.2291 59.2693 43.2291 60.4C43.2291 61.5307 42.9945 62.5333 42.5251 63.408C42.0558 64.2827 41.4051 64.9653 40.5731 65.456C39.7518 65.9467 38.8025 66.192 37.7251 66.192ZM37.7251 64.752C38.4931 64.752 39.1705 64.5653 39.7571 64.192C40.3438 63.8187 40.8025 63.3067 41.1331 62.656C41.4638 62.0053 41.6291 61.2533 41.6291 60.4C41.6291 59.5573 41.4585 58.8107 41.1171 58.16C40.7865 57.4987 40.3225 56.9813 39.7251 56.608C39.1385 56.2347 38.4611 56.048 37.6931 56.048C36.9251 56.048 36.2425 56.2347 35.6451 56.608C35.0478 56.9813 34.5785 57.4987 34.2371 58.16C33.9065 58.8107 33.7411 59.5573 33.7411 60.4C33.7411 61.2533 33.9118 62.0053 34.2531 62.656C34.5945 63.3067 35.0638 63.8187 35.6611 64.192C36.2691 64.5653 36.9571 64.752 37.7251 64.752ZM47.4304 66V55.728H49.0144V66H47.4304ZM43.9264 56.24V54.8H52.5184V56.24H43.9264ZM60.793 66L56.361 54.8H57.961L62.473 66H60.793ZM51.769 66L56.281 54.8H57.881L53.449 66H51.769ZM53.897 63.008V61.6H60.345V63.008H53.897Z" fill="#0F0F0F"/>
<defs>
<clipPath id="clip0_1_2987">
<rect width="42.24" height="36" fill="white" transform="translate(10.38)"/>
</clipPath>
</defs>
</svg>
