<svg width="93" height="68" viewBox="0 0 93 68" fill="none" xmlns="http://www.w3.org/2000/svg">
<path d="M15.9996 1.88281C12.2982 2.00626 8.79349 3.57923 6.24104 6.26264C3.68858 8.94605 2.29277 12.525 2.3545 16.2279C2.41624 19.9309 3.93057 23.4613 6.57105 26.0582C9.21154 28.655 12.7667 30.1103 16.4702 30.1103C20.1737 30.1103 23.7288 28.655 26.3693 26.0582C29.0098 23.4613 30.5241 19.9309 30.5859 16.2279C30.6476 12.525 29.2518 8.94605 26.6993 6.26264C24.1469 3.57923 20.6422 2.00626 16.9408 1.88281H15.9996ZM35.7643 1.88281C32.0629 2.00626 28.5582 3.57923 26.0057 6.26264C23.4533 8.94605 22.0575 12.525 22.1192 16.2279C22.1809 19.9309 23.6953 23.4613 26.3357 26.0582C28.9762 28.655 32.5314 30.1103 36.2349 30.1103C39.9384 30.1103 43.4935 28.655 46.134 26.0582C48.7745 23.4613 50.2888 19.9309 50.3506 16.2279C50.4123 12.525 49.0165 8.94605 46.464 6.26264C43.9116 3.57923 40.4069 2.00626 36.7055 1.88281H35.7643ZM55.529 1.88281C51.8276 2.00626 48.3229 3.57923 45.7704 6.26264C43.218 8.94605 41.8222 12.525 41.8839 16.2279C41.9456 19.9309 43.46 23.4613 46.1004 26.0582C48.7409 28.655 52.2961 30.1103 55.9996 30.1103C59.7031 30.1103 63.2582 28.655 65.8987 26.0582C68.5392 23.4613 70.0535 19.9309 70.1153 16.2279C70.177 12.525 68.7812 8.94605 66.2287 6.26264C63.6763 3.57923 60.1716 2.00626 56.4702 1.88281H55.529ZM75.2937 1.88281C71.5923 2.00626 68.0876 3.57923 65.5351 6.26264C62.9827 8.94605 61.5869 12.525 61.6486 16.2279C61.7103 19.9309 63.2247 23.4613 65.8651 26.0582C68.5056 28.655 72.0608 30.1103 75.7643 30.1103C79.4677 30.1103 83.0229 28.655 85.6634 26.0582C88.3039 23.4613 89.8182 19.9309 89.88 16.2279C89.9417 12.525 88.5459 8.94605 85.9934 6.26264C83.441 3.57923 79.9363 2.00626 76.2349 1.88281H75.2937Z" stroke="black" stroke-width="3"/>
<path d="M38.6841 62L34.2521 50.8H35.8521L40.3641 62H38.6841ZM29.6601 62L34.1721 50.8H35.7721L31.3401 62H29.6601ZM31.7881 59.008V57.6H38.2361V59.008H31.7881ZM46.9965 62L46.9005 60.528V54H48.4045V62H46.9965ZM41.3645 58.576V54H42.8845V58.096L41.3645 58.576ZM42.8845 58.096C42.8845 58.8107 42.9645 59.36 43.1245 59.744C43.2951 60.128 43.5298 60.3947 43.8285 60.544C44.1271 60.6933 44.4631 60.7733 44.8365 60.784C45.4871 60.784 45.9938 60.5547 46.3565 60.096C46.7191 59.6373 46.9005 58.992 46.9005 58.16H47.5565C47.5565 59.0027 47.4338 59.728 47.1885 60.336C46.9431 60.9333 46.5858 61.392 46.1165 61.712C45.6578 62.032 45.1031 62.192 44.4525 62.192C43.4925 62.192 42.7351 61.8933 42.1805 61.296C41.6365 60.6987 41.3645 59.792 41.3645 58.576L42.8845 58.096ZM56.3812 62L56.3172 60.512V50.8H57.8212V62H56.3812ZM53.6932 62.192C52.9679 62.192 52.3332 62.016 51.7892 61.664C51.2559 61.312 50.8345 60.8213 50.5252 60.192C50.2265 59.5627 50.0772 58.832 50.0772 58C50.0772 57.1573 50.2265 56.4267 50.5252 55.808C50.8345 55.1787 51.2559 54.688 51.7892 54.336C52.3332 53.984 52.9679 53.808 53.6932 53.808C54.3652 53.808 54.9465 53.984 55.4372 54.336C55.9385 54.688 56.3225 55.1787 56.5892 55.808C56.8559 56.4267 56.9892 57.1573 56.9892 58C56.9892 58.832 56.8559 59.5627 56.5892 60.192C56.3225 60.8213 55.9385 61.312 55.4372 61.664C54.9465 62.016 54.3652 62.192 53.6932 62.192ZM54.0452 60.816C54.4932 60.816 54.8879 60.6987 55.2292 60.464C55.5705 60.2187 55.8372 59.888 56.0292 59.472C56.2212 59.0453 56.3172 58.5547 56.3172 58C56.3172 57.4453 56.2212 56.96 56.0292 56.544C55.8372 56.1173 55.5705 55.7867 55.2292 55.552C54.8879 55.3067 54.4879 55.184 54.0292 55.184C53.5599 55.184 53.1439 55.3067 52.7812 55.552C52.4185 55.7867 52.1359 56.1173 51.9332 56.544C51.7305 56.96 51.6292 57.4453 51.6292 58C51.6292 58.5547 51.7305 59.0453 51.9332 59.472C52.1465 59.888 52.4345 60.2187 52.7972 60.464C53.1599 60.6987 53.5759 60.816 54.0452 60.816ZM60.0275 62L60.0595 54H61.5635L61.5475 62H60.0275ZM60.7955 52.304C60.5501 52.304 60.3368 52.2133 60.1555 52.032C59.9741 51.84 59.8835 51.6213 59.8835 51.376C59.8835 51.12 59.9741 50.9067 60.1555 50.736C60.3368 50.5547 60.5501 50.464 60.7955 50.464C61.0515 50.464 61.2648 50.5547 61.4355 50.736C61.6168 50.9067 61.7075 51.12 61.7075 51.376C61.7075 51.6213 61.6168 51.84 61.4355 52.032C61.2648 52.2133 61.0515 52.304 60.7955 52.304Z" fill="black"/>
</svg>
