<svg width="41" height="76" viewBox="0 0 41 76" fill="none" xmlns="http://www.w3.org/2000/svg">
<g clip-path="url(#clip0_1_2930)">
<path d="M20.1266 39.9215L25.7412 8.4422C31.0869 8.4422 32.7792 9.02603 33.0164 11.4087C33.0164 11.4087 36.6066 10.0674 38.4095 7.36922C31.3558 4.10295 24.2545 3.96094 24.2545 3.96094L20.1108 8.99447H20.1266L15.9988 3.96094C15.9988 3.96094 8.89753 4.10295 1.84375 7.36922C3.64673 10.0832 7.23689 11.4087 7.23689 11.4087C7.47412 9.02603 9.1664 8.4422 14.4805 8.42642L20.1266 39.9215Z" fill="black"/>
<path d="M20.1265 2.51006C25.836 2.46272 32.3678 3.39369 39.0579 6.29704C39.9594 4.68757 40.1808 3.97751 40.1808 3.97751C32.8739 1.08994 26.0258 0.111636 20.1265 0.0800781C14.2431 0.111636 7.39492 1.08994 0.0722656 3.97751C0.0722656 3.97751 0.404395 4.84536 1.19518 6.29704C7.8852 3.37791 14.4171 2.46272 20.1265 2.51006Z" fill="black"/>
</g>
<path d="M5.79808 70V59.728H7.38208V70H5.79808ZM2.29408 60.24V58.8H10.8861V60.24H2.29408ZM14.6628 70.192C13.8842 70.192 13.1962 70.016 12.5988 69.664C12.0015 69.3013 11.5322 68.8053 11.1908 68.176C10.8495 67.5467 10.6788 66.8213 10.6788 66C10.6788 65.1787 10.8495 64.4533 11.1908 63.824C11.5322 63.1947 12.0015 62.704 12.5988 62.352C13.2068 61.9893 13.9002 61.808 14.6788 61.808C15.4042 61.808 16.0442 61.9947 16.5988 62.368C17.1642 62.7307 17.6015 63.2533 17.9108 63.936C18.2308 64.608 18.3908 65.4027 18.3908 66.32H16.8708C16.8815 65.6373 16.7962 65.0613 16.6148 64.592C16.4442 64.1227 16.1882 63.7707 15.8468 63.536C15.5162 63.2907 15.1162 63.168 14.6468 63.168C14.1455 63.168 13.7135 63.2853 13.3508 63.52C12.9882 63.744 12.7055 64.0693 12.5028 64.496C12.3108 64.912 12.2148 65.424 12.2148 66.032C12.2148 66.5973 12.3268 67.088 12.5508 67.504C12.7748 67.9093 13.0788 68.2293 13.4628 68.464C13.8468 68.688 14.2842 68.8 14.7748 68.8C15.2975 68.8 15.7295 68.6773 16.0708 68.432C16.4228 68.1867 16.7002 67.872 16.9028 67.488L18.2628 68.112C18.0495 68.528 17.7722 68.896 17.4308 69.216C17.0895 69.5253 16.6842 69.7653 16.2148 69.936C15.7562 70.1067 15.2388 70.192 14.6628 70.192ZM11.6708 66.32L11.6868 65.072H17.5428V66.32H11.6708ZM22.7565 70.192C22.1911 70.192 21.6845 70.1067 21.2365 69.936C20.7991 69.7653 20.4258 69.536 20.1165 69.248C19.8178 68.96 19.5938 68.6347 19.4445 68.272L20.7565 67.696C20.9271 68.0267 21.1831 68.2987 21.5245 68.512C21.8658 68.7253 22.2445 68.832 22.6605 68.832C23.1191 68.832 23.4978 68.7467 23.7965 68.576C24.0951 68.4053 24.2445 68.1653 24.2445 67.856C24.2445 67.5573 24.1325 67.3227 23.9085 67.152C23.6845 66.9813 23.3591 66.8427 22.9325 66.736L22.1805 66.544C21.4338 66.3413 20.8525 66.0373 20.4365 65.632C20.0311 65.2267 19.8285 64.768 19.8285 64.256C19.8285 63.4773 20.0791 62.8747 20.5805 62.448C21.0818 62.0213 21.8231 61.808 22.8045 61.808C23.2845 61.808 23.7218 61.8773 24.1165 62.016C24.5218 62.1547 24.8631 62.352 25.1405 62.608C25.4285 62.864 25.6311 63.168 25.7485 63.52L24.4685 64.096C24.3405 63.776 24.1218 63.5413 23.8125 63.392C23.5031 63.232 23.1405 63.152 22.7245 63.152C22.2978 63.152 21.9618 63.248 21.7165 63.44C21.4711 63.6213 21.3485 63.8773 21.3485 64.208C21.3485 64.3893 21.4498 64.5653 21.6525 64.736C21.8658 64.896 22.1751 65.0293 22.5805 65.136L23.4445 65.344C23.9671 65.472 24.3991 65.6693 24.7405 65.936C25.0818 66.192 25.3378 66.4853 25.5085 66.816C25.6791 67.136 25.7645 67.472 25.7645 67.824C25.7645 68.304 25.6311 68.7253 25.3645 69.088C25.1085 69.44 24.7511 69.712 24.2925 69.904C23.8445 70.096 23.3325 70.192 22.7565 70.192ZM27.3456 70V58.8H28.8656V70H27.3456ZM35.8666 70L35.7866 68.608V65.824C35.7866 65.2373 35.7172 64.752 35.5786 64.368C35.4506 63.9733 35.2479 63.6747 34.9706 63.472C34.7039 63.2693 34.3466 63.168 33.8986 63.168C33.4826 63.168 33.1146 63.2533 32.7946 63.424C32.4852 63.5947 32.2292 63.8613 32.0266 64.224L30.6506 63.712C30.8426 63.3493 31.0879 63.024 31.3866 62.736C31.6852 62.448 32.0426 62.224 32.4586 62.064C32.8852 61.8933 33.3759 61.808 33.9306 61.808C34.6772 61.808 35.3012 61.952 35.8026 62.24C36.3146 62.528 36.6932 62.96 36.9386 63.536C37.1946 64.1013 37.3172 64.8053 37.3066 65.648L37.2906 70H35.8666ZM33.5306 70.192C32.5812 70.192 31.8399 69.9787 31.3066 69.552C30.7839 69.1147 30.5226 68.512 30.5226 67.744C30.5226 66.9227 30.7946 66.2987 31.3386 65.872C31.8932 65.4347 32.6612 65.216 33.6426 65.216H35.8666V66.416H34.0586C33.3226 66.416 32.8052 66.5333 32.5066 66.768C32.2079 66.992 32.0586 67.3067 32.0586 67.712C32.0586 68.0853 32.1972 68.3787 32.4746 68.592C32.7626 68.7947 33.1572 68.896 33.6586 68.896C34.0959 68.896 34.4692 68.7947 34.7786 68.592C35.0986 68.3893 35.3439 68.1227 35.5146 67.792C35.6959 67.4507 35.7866 67.072 35.7866 66.656H36.5066C36.5066 67.744 36.2559 68.608 35.7546 69.248C35.2532 69.8773 34.5119 70.192 33.5306 70.192Z" fill="#0F0F0F"/>
<defs>
<clipPath id="clip0_1_2930">
<rect width="40.2667" height="40" fill="white"/>
</clipPath>
</defs>
</svg>
