<svg width="55" height="72" viewBox="0 0 55 72" fill="none" xmlns="http://www.w3.org/2000/svg">
<path d="M39.67 1.76931C36.2636 0.649949 32.0412 0 27.4639 0C22.8866 0 18.6641 0.649949 15.2578 1.76931C6.20963 4.73019 0.00012207 10.8686 0.00012207 17.9458C0.00012207 27.9117 12.2772 36 27.4284 36C42.5796 36 54.8567 27.9117 54.8567 17.9458C54.9276 10.8686 48.7181 4.73019 39.67 1.76931ZM27.4639 28.2728C25.193 28.2728 23.3479 23.7593 23.2414 18.0542C24.5898 18.1625 26.0091 18.2347 27.4639 18.2347C28.9187 18.2347 30.3025 18.1625 31.6863 18.0542C31.5799 23.7232 29.7348 28.2728 27.4639 28.2728ZM23.5253 13.5767C24.1285 9.56871 25.6542 6.75226 27.4639 6.75226C29.238 6.75226 30.7638 9.56871 31.4025 13.5767C30.1606 13.6851 28.8122 13.7573 27.4639 13.7573C26.1155 13.7573 24.8027 13.7212 23.5253 13.5767ZM33.8153 13.2879C32.8928 7.00501 30.409 2.52758 27.4639 2.52758C24.5188 2.52758 22.035 7.00501 21.1124 13.2879C15.5416 12.3852 11.6385 10.3992 11.6385 8.05215C11.6385 4.87462 18.6996 2.31093 27.4284 2.31093C36.1572 2.31093 43.2183 4.87462 43.2183 8.05215C43.2892 10.3992 39.3861 12.4213 33.8153 13.2879ZM4.04517 17.2959C4.04517 14.2267 5.21611 11.3741 7.20315 8.91875C7.16766 9.0993 7.16767 9.27984 7.16767 9.42427C7.16767 13.2879 12.8449 16.5376 20.7576 17.7292C20.7576 18.0181 20.7576 18.3069 20.7576 18.5958C20.7576 25.7452 22.7092 31.8114 25.4059 33.9057C13.4127 33.1836 4.04517 26.0341 4.04517 17.2959ZM29.5574 33.9057C32.2541 31.8114 34.2056 25.7452 34.2056 18.5958C34.2056 18.3069 34.2056 18.0181 34.2056 17.7292C42.1183 16.5376 47.7956 13.2518 47.7956 9.42427C47.7956 9.24373 47.7956 9.06319 47.7601 8.91875C49.7826 11.3741 50.9181 14.2628 50.9181 17.2959C50.9181 26.0341 41.5151 33.1836 29.5574 33.9057Z" fill="#0F0F0F"/>
<path d="M6.60127 66V55.728H8.18527V66H6.60127ZM3.09727 56.24V54.8H11.6893V56.24H3.09727ZM15.546 66.192C14.746 66.192 14.042 66.016 13.434 65.664C12.826 65.3013 12.346 64.8053 11.994 64.176C11.6527 63.5467 11.482 62.8213 11.482 62C11.482 61.1787 11.6527 60.4533 11.994 59.824C12.3354 59.1947 12.81 58.704 13.418 58.352C14.026 57.9893 14.7247 57.808 15.514 57.808C16.3034 57.808 17.002 57.9893 17.61 58.352C18.218 58.704 18.6927 59.1947 19.034 59.824C19.3754 60.4533 19.546 61.1787 19.546 62C19.546 62.8213 19.3754 63.5467 19.034 64.176C18.6927 64.8053 18.218 65.3013 17.61 65.664C17.0127 66.016 16.3247 66.192 15.546 66.192ZM15.546 64.8C16.026 64.8 16.4527 64.6827 16.826 64.448C17.1994 64.2027 17.4874 63.872 17.69 63.456C17.9034 63.04 18.01 62.5547 18.01 62C18.01 61.4453 17.9034 60.96 17.69 60.544C17.4874 60.128 17.194 59.8027 16.81 59.568C16.426 59.3227 15.994 59.2 15.514 59.2C15.0234 59.2 14.5914 59.3227 14.218 59.568C13.8447 59.8027 13.5514 60.128 13.338 60.544C13.1247 60.96 13.018 61.4453 13.018 62C13.018 62.5547 13.1247 63.04 13.338 63.456C13.5514 63.872 13.85 64.2027 14.234 64.448C14.618 64.6827 15.0554 64.8 15.546 64.8ZM21.9373 69.392C21.7026 69.392 21.4413 69.3493 21.1533 69.264C20.8759 69.1787 20.5879 69.0667 20.2893 68.928L20.8493 67.68C21.0839 67.7867 21.2866 67.8667 21.4573 67.92C21.6386 67.9733 21.7826 68 21.8893 68C22.1559 68 22.3799 67.9253 22.5613 67.776C22.7533 67.6267 22.9079 67.4187 23.0253 67.152L23.9533 64.96L26.8013 58H28.4333L24.6413 66.992C24.4386 67.4827 24.2253 67.9093 24.0013 68.272C23.7773 68.6347 23.4999 68.912 23.1693 69.104C22.8493 69.296 22.4386 69.392 21.9373 69.392ZM23.5373 66L20.0333 58H21.6493L24.5453 64.944L25.0093 66H23.5373ZM33.0148 66.192C32.2148 66.192 31.5108 66.016 30.9028 65.664C30.2948 65.3013 29.8148 64.8053 29.4628 64.176C29.1214 63.5467 28.9508 62.8213 28.9508 62C28.9508 61.1787 29.1214 60.4533 29.4628 59.824C29.8041 59.1947 30.2788 58.704 30.8868 58.352C31.4948 57.9893 32.1934 57.808 32.9828 57.808C33.7721 57.808 34.4708 57.9893 35.0788 58.352C35.6868 58.704 36.1614 59.1947 36.5028 59.824C36.8441 60.4533 37.0148 61.1787 37.0148 62C37.0148 62.8213 36.8441 63.5467 36.5028 64.176C36.1614 64.8053 35.6868 65.3013 35.0788 65.664C34.4814 66.016 33.7934 66.192 33.0148 66.192ZM33.0148 64.8C33.4948 64.8 33.9214 64.6827 34.2948 64.448C34.6681 64.2027 34.9561 63.872 35.1588 63.456C35.3721 63.04 35.4788 62.5547 35.4788 62C35.4788 61.4453 35.3721 60.96 35.1588 60.544C34.9561 60.128 34.6628 59.8027 34.2788 59.568C33.8948 59.3227 33.4628 59.2 32.9828 59.2C32.4921 59.2 32.0601 59.3227 31.6868 59.568C31.3134 59.8027 31.0201 60.128 30.8068 60.544C30.5934 60.96 30.4868 61.4453 30.4868 62C30.4868 62.5547 30.5934 63.04 30.8068 63.456C31.0201 63.872 31.3188 64.2027 31.7028 64.448C32.0868 64.6827 32.5241 64.8 33.0148 64.8ZM41.768 66.192C40.968 66.192 40.3494 65.9893 39.912 65.584C39.4747 65.168 39.256 64.576 39.256 63.808V55.504H40.776V63.584C40.776 63.9787 40.872 64.2827 41.064 64.496C41.2667 64.6987 41.5547 64.8 41.928 64.8C42.0347 64.8 42.152 64.7787 42.28 64.736C42.408 64.6933 42.5627 64.608 42.744 64.48L43.32 65.664C43.0427 65.8453 42.776 65.9787 42.52 66.064C42.2747 66.1493 42.024 66.192 41.768 66.192ZM37.896 59.312V58H43.048V59.312H37.896ZM49.6541 66L49.5741 64.608V61.824C49.5741 61.2373 49.5048 60.752 49.3661 60.368C49.2381 59.9733 49.0355 59.6747 48.7581 59.472C48.4915 59.2693 48.1341 59.168 47.6861 59.168C47.2701 59.168 46.9021 59.2533 46.5821 59.424C46.2728 59.5947 46.0168 59.8613 45.8141 60.224L44.4381 59.712C44.6301 59.3493 44.8755 59.024 45.1741 58.736C45.4728 58.448 45.8301 58.224 46.2461 58.064C46.6728 57.8933 47.1635 57.808 47.7181 57.808C48.4648 57.808 49.0888 57.952 49.5901 58.24C50.1021 58.528 50.4808 58.96 50.7261 59.536C50.9821 60.1013 51.1048 60.8053 51.0941 61.648L51.0781 66H49.6541ZM47.3181 66.192C46.3688 66.192 45.6275 65.9787 45.0941 65.552C44.5715 65.1147 44.3101 64.512 44.3101 63.744C44.3101 62.9227 44.5821 62.2987 45.1261 61.872C45.6808 61.4347 46.4488 61.216 47.4301 61.216H49.6541V62.416H47.8461C47.1101 62.416 46.5928 62.5333 46.2941 62.768C45.9955 62.992 45.8461 63.3067 45.8461 63.712C45.8461 64.0853 45.9848 64.3787 46.2621 64.592C46.5501 64.7947 46.9448 64.896 47.4461 64.896C47.8835 64.896 48.2568 64.7947 48.5661 64.592C48.8861 64.3893 49.1315 64.1227 49.3021 63.792C49.4835 63.4507 49.5741 63.072 49.5741 62.656H50.2941C50.2941 63.744 50.0435 64.608 49.5421 65.248C49.0408 65.8773 48.2995 66.192 47.3181 66.192Z" fill="#0F0F0F"/>
</svg>
